<?xml version="1.0" encoding="utf-8"?>
<!-- Generator: Adobe Illustrator 25.4.6, SVG Export Plug-In . SVG Version: 6.00 Build 0)  -->
<svg version="1.1" id="Layer_1" xmlns="http://www.w3.org/2000/svg" xmlns:xlink="http://www.w3.org/1999/xlink" x="0px" y="0px"
	 viewBox="0 0 1451.34 1451.34" style="enable-background:new 0 0 1451.34 1451.34;" xml:space="preserve">
<style type="text/css">
	.st0{enable-background:new    ;}
	.st1{clip-path:url(#SVGID_00000173159589897755659690000014471717503274546367_);enable-background:new    ;}
	.st2{fill:#469E69;stroke:#FFFFFF;stroke-miterlimit:10;}
	.st3{clip-path:url(#SVGID_00000089566039664275086960000016464239216595005837_);enable-background:new    ;}
	.st4{clip-path:url(#SVGID_00000080914894093641038140000001138812285377426101_);enable-background:new    ;}
	.st5{clip-path:url(#SVGID_00000132076072098706766920000004367570615986622904_);enable-background:new    ;}
	.st6{clip-path:url(#SVGID_00000147939896746674775190000016466810700793925033_);enable-background:new    ;}
	.st7{clip-path:url(#SVGID_00000146457617286381274670000014375452912020349075_);enable-background:new    ;}
	.st8{clip-path:url(#SVGID_00000163063680531321389680000003083526769558312071_);enable-background:new    ;}
	.st9{clip-path:url(#SVGID_00000055698831185595653070000013530552590018379143_);enable-background:new    ;}
	.st10{clip-path:url(#SVGID_00000119824422057951223250000006732517471677753242_);enable-background:new    ;}
</style>
<g>
	<g>
		<g>
			<g class="st0">
				<g class="st0">
					<g>
						<defs>
							<path id="SVGID_1_" d="M945.14,813.71l22.79,12.4c-0.94-0.51-1.92-0.98-2.94-1.41l-22.79-12.4
								C943.22,812.73,944.2,813.2,945.14,813.71z"/>
						</defs>
						<use xlink:href="#SVGID_1_"  style="overflow:visible;fill:#469E69;"/>
						<clipPath id="SVGID_00000023978217537599196190000016568735228317470890_">
							<use xlink:href="#SVGID_1_"  style="overflow:visible;"/>
						</clipPath>
						<g style="clip-path:url(#SVGID_00000023978217537599196190000016568735228317470890_);enable-background:new    ;">
							<path class="st2" d="M964.99,824.71l-22.79-12.4c0.59,0.25,1.17,0.51,1.74,0.78l22.79,12.4
								C966.16,825.22,965.59,824.95,964.99,824.71"/>
							<path class="st2" d="M966.73,825.49l-22.79-12.4c0.41,0.2,0.81,0.41,1.2,0.62l22.79,12.4
								C967.54,825.9,967.14,825.69,966.73,825.49"/>
						</g>
						<use xlink:href="#SVGID_1_"  style="overflow:visible;fill:none;stroke:#FFFFFF;stroke-miterlimit:10;"/>
					</g>
				</g>
				<g class="st0">
					<g>
						<defs>
							<path id="SVGID_00000145750065326146234250000005462705839912127155_" d="M709.22,1050.71l-22.79-12.4
								c-9.92-5.4-16.85-16.33-16.82-30.76l22.79,12.4C692.37,1034.38,699.29,1045.31,709.22,1050.71z"/>
						</defs>
						<use xlink:href="#SVGID_00000145750065326146234250000005462705839912127155_"  style="overflow:visible;fill:#469E69;"/>
						<clipPath id="SVGID_00000048470838202385666880000005956834386371524533_">
							<use xlink:href="#SVGID_00000145750065326146234250000005462705839912127155_"  style="overflow:visible;"/>
						</clipPath>
						<g style="clip-path:url(#SVGID_00000048470838202385666880000005956834386371524533_);enable-background:new    ;">
							<path class="st2" d="M709.22,1050.71l-22.79-12.4c-9.92-5.4-16.85-16.33-16.82-30.76l22.79,12.4
								C692.37,1034.38,699.29,1045.31,709.22,1050.71"/>
						</g>
						
							<use xlink:href="#SVGID_00000145750065326146234250000005462705839912127155_"  style="overflow:visible;fill:none;stroke:#FFFFFF;stroke-miterlimit:10;"/>
					</g>
				</g>
				<g>
					<polygon class="st2" points="745.92,733.41 723.13,721.01 942.2,812.31 964.99,824.71 					"/>
				</g>
				<g class="st0">
					<g>
						<defs>
							<path id="SVGID_00000004509535228015162790000018390779119279139215_" d="M729.29,731.32l-22.79-12.4
								c5.53-0.78,11.2-0.18,16.63,2.08l22.79,12.4C740.49,731.14,734.82,730.55,729.29,731.32z"/>
						</defs>
						<use xlink:href="#SVGID_00000004509535228015162790000018390779119279139215_"  style="overflow:visible;fill:#469E69;"/>
						<clipPath id="SVGID_00000169536708987626307200000010447660670883303835_">
							<use xlink:href="#SVGID_00000004509535228015162790000018390779119279139215_"  style="overflow:visible;"/>
						</clipPath>
						<g style="clip-path:url(#SVGID_00000169536708987626307200000010447660670883303835_);enable-background:new    ;">
							<path class="st2" d="M729.29,731.32l-22.79-12.4c4.12-0.58,8.33-0.4,12.45,0.67l22.79,12.4
								C737.62,730.93,733.41,730.75,729.29,731.32"/>
							<path class="st2" d="M741.74,732l-22.79-12.4c1.4,0.36,2.8,0.83,4.18,1.41l22.79,12.4
								C744.54,732.83,743.14,732.36,741.74,732"/>
						</g>
						
							<use xlink:href="#SVGID_00000004509535228015162790000018390779119279139215_"  style="overflow:visible;fill:none;stroke:#FFFFFF;stroke-miterlimit:10;"/>
					</g>
				</g>
				<g>
					<polygon class="st2" points="692.4,1019.95 669.6,1007.55 670.06,763.32 692.85,775.71 					"/>
				</g>
				<g>
					<path class="st2" d="M729.29,731.32c5.53-0.78,11.2-0.18,16.63,2.08l219.07,91.3c26.21,10.92,26.13,51.41-0.13,69.71
						l-219.53,152.94c-5.44,3.79-11.12,5.98-16.65,6.76c-19.05,2.68-36.34-11.4-36.29-34.17l0.45-244.24
						C692.89,752.94,710.24,734,729.29,731.32z"/>
				</g>
				<g class="st0">
					<g>
						<defs>
							<path id="SVGID_00000177460163952784751710000016914605412332831379_" d="M692.85,775.71l-22.79-12.4
								c0.04-22.77,17.39-41.71,36.44-44.39l22.79,12.4C710.24,734,692.89,752.94,692.85,775.71z"/>
						</defs>
						<use xlink:href="#SVGID_00000177460163952784751710000016914605412332831379_"  style="overflow:visible;fill:#469E69;"/>
						<clipPath id="SVGID_00000151503453907972292360000001191710865554594463_">
							<use xlink:href="#SVGID_00000177460163952784751710000016914605412332831379_"  style="overflow:visible;"/>
						</clipPath>
						<g style="clip-path:url(#SVGID_00000151503453907972292360000001191710865554594463_);enable-background:new    ;">
							<path class="st2" d="M692.85,775.71l-22.79-12.4c0.01-5.44,1.01-10.66,2.78-15.49l22.79,12.4
								C693.86,765.06,692.86,770.28,692.85,775.71"/>
							<path class="st2" d="M695.63,760.23l-22.79-12.4c0.76-2.09,1.67-4.1,2.71-6.03l22.79,12.4
								C697.3,756.13,696.39,758.14,695.63,760.23"/>
							<path class="st2" d="M698.34,754.2l-22.79-12.4c0.89-1.65,1.87-3.24,2.93-4.75l22.79,12.4
								C700.21,750.96,699.23,752.55,698.34,754.2"/>
							<path class="st2" d="M701.27,749.44l-22.79-12.4c1.02-1.45,2.11-2.84,3.27-4.15l22.79,12.4
								C703.38,746.61,702.29,747.99,701.27,749.44"/>
							<path class="st2" d="M704.54,745.29l-22.79-12.4c1.18-1.34,2.43-2.6,3.73-3.77l22.79,12.4
								C706.97,742.7,705.72,743.96,704.54,745.29"/>
							<path class="st2" d="M708.27,741.52l-22.79-12.4c1.43-1.29,2.93-2.47,4.49-3.55l22.79,12.4
								C711.2,739.05,709.7,740.24,708.27,741.52"/>
							<path class="st2" d="M712.76,737.97l-22.79-12.4c1.92-1.33,3.93-2.49,6-3.46l22.79,12.4
								C716.69,735.48,714.68,736.64,712.76,737.97"/>
							<path class="st2" d="M718.76,734.51l-22.79-12.4c3.38-1.59,6.92-2.68,10.53-3.19l22.79,12.4
								C725.68,731.83,722.14,732.92,718.76,734.51"/>
						</g>
						
							<use xlink:href="#SVGID_00000177460163952784751710000016914605412332831379_"  style="overflow:visible;fill:none;stroke:#FFFFFF;stroke-miterlimit:10;"/>
					</g>
				</g>
			</g>
		</g>
	</g>
	<g>
		<g>
			<g class="st0">
				<g class="st0">
					<g>
						<defs>
							<path id="SVGID_00000177475468421905422020000005852406046659270314_" d="M900.52,549.63l22.79,12.4
								c-1.25-0.68-2.73-0.96-4.31-0.74l-22.79-12.4C897.79,548.67,899.27,548.95,900.52,549.63z"/>
						</defs>
						<use xlink:href="#SVGID_00000177475468421905422020000005852406046659270314_"  style="overflow:visible;fill:#469E69;"/>
						<clipPath id="SVGID_00000089540785665567837500000016290329101251204750_">
							<use xlink:href="#SVGID_00000177475468421905422020000005852406046659270314_"  style="overflow:visible;"/>
						</clipPath>
						<g style="clip-path:url(#SVGID_00000089540785665567837500000016290329101251204750_);enable-background:new    ;">
							<path class="st2" d="M919,561.29l-22.79-12.4c0.98-0.14,1.92-0.08,2.79,0.14l22.79,12.4
								C920.92,561.21,919.98,561.15,919,561.29"/>
							<path class="st2" d="M921.79,561.43L899,549.03c0.45,0.11,0.87,0.27,1.28,0.47l22.79,12.4
								C922.66,561.7,922.24,561.55,921.79,561.43"/>
							<path class="st2" d="M923.07,561.9l-22.79-12.4c0.08,0.04,0.17,0.08,0.25,0.13l22.79,12.4
								C923.23,561.99,923.15,561.94,923.07,561.9"/>
						</g>
						
							<use xlink:href="#SVGID_00000177475468421905422020000005852406046659270314_"  style="overflow:visible;fill:none;stroke:#FFFFFF;stroke-miterlimit:10;"/>
					</g>
				</g>
				<g class="st0">
					<g>
						<defs>
							<path id="SVGID_00000121960807743904500490000009103645361923587261_" d="M900.85,374.6l22.79,12.4
								c-1.25-0.68-2.73-0.96-4.31-0.74l-22.79-12.4C898.12,373.63,899.6,373.92,900.85,374.6z"/>
						</defs>
						<use xlink:href="#SVGID_00000121960807743904500490000009103645361923587261_"  style="overflow:visible;fill:#469E69;"/>
						<clipPath id="SVGID_00000057145538914943337140000018208536825959016069_">
							<use xlink:href="#SVGID_00000121960807743904500490000009103645361923587261_"  style="overflow:visible;"/>
						</clipPath>
						<g style="clip-path:url(#SVGID_00000057145538914943337140000018208536825959016069_);enable-background:new    ;">
							<path class="st2" d="M919.33,386.25l-22.79-12.4c0.98-0.14,1.92-0.08,2.79,0.14l22.79,12.4
								C921.25,386.17,920.31,386.12,919.33,386.25"/>
							<path class="st2" d="M922.12,386.4l-22.8-12.4c0.45,0.11,0.87,0.27,1.28,0.47l22.79,12.4
								C922.99,386.67,922.56,386.51,922.12,386.4"/>
							<path class="st2" d="M923.39,386.87l-22.79-12.4c0.08,0.04,0.17,0.08,0.25,0.13l22.79,12.4
								C923.56,386.95,923.48,386.91,923.39,386.87"/>
						</g>
						
							<use xlink:href="#SVGID_00000121960807743904500490000009103645361923587261_"  style="overflow:visible;fill:none;stroke:#FFFFFF;stroke-miterlimit:10;"/>
					</g>
				</g>
				<g class="st0">
					<g>
						<defs>
							<path id="SVGID_00000037678932915898309360000015983668674770226609_" d="M534.8,978.45l-22.79-12.4
								c-2.26-1.23-3.76-3.75-3.75-6.85l22.79,12.4C531.05,974.71,532.54,977.22,534.8,978.45z"/>
						</defs>
						<use xlink:href="#SVGID_00000037678932915898309360000015983668674770226609_"  style="overflow:visible;fill:#469E69;"/>
						<clipPath id="SVGID_00000098202574575056172990000016939602298170587541_">
							<use xlink:href="#SVGID_00000037678932915898309360000015983668674770226609_"  style="overflow:visible;"/>
						</clipPath>
						<g style="clip-path:url(#SVGID_00000098202574575056172990000016939602298170587541_);enable-background:new    ;">
							<path class="st2" d="M534.8,978.45l-22.79-12.4c-2.26-1.23-3.76-3.75-3.75-6.85l22.79,12.4
								C531.05,974.71,532.54,977.22,534.8,978.45"/>
						</g>
						
							<use xlink:href="#SVGID_00000037678932915898309360000015983668674770226609_"  style="overflow:visible;fill:none;stroke:#FFFFFF;stroke-miterlimit:10;"/>
					</g>
				</g>
				<g>
					<polygon class="st2" points="640.68,600.4 617.89,588.01 896.21,548.89 919,561.29 					"/>
				</g>
				<g class="st0">
					<g>
						<defs>
							<path id="SVGID_00000021089685610816054860000006707042694741622684_" d="M636.35,599.66l-22.79-12.4
								c1.25,0.68,2.73,0.97,4.32,0.74l22.79,12.4C639.09,600.63,637.6,600.34,636.35,599.66z"/>
						</defs>
						<use xlink:href="#SVGID_00000021089685610816054860000006707042694741622684_"  style="overflow:visible;fill:#469E69;"/>
						<clipPath id="SVGID_00000076596193998708290080000013763436922896025270_">
							<use xlink:href="#SVGID_00000021089685610816054860000006707042694741622684_"  style="overflow:visible;"/>
						</clipPath>
						<g style="clip-path:url(#SVGID_00000076596193998708290080000013763436922896025270_);enable-background:new    ;">
							<path class="st2" d="M636.35,599.66l-22.79-12.4c0.08,0.04,0.16,0.09,0.25,0.13l22.79,12.4
								C636.52,599.75,636.44,599.71,636.35,599.66"/>
							<path class="st2" d="M636.6,599.79l-22.79-12.4c0.41,0.2,0.83,0.36,1.28,0.47l22.79,12.4
								C637.43,600.15,637.01,599.99,636.6,599.79"/>
							<path class="st2" d="M637.88,600.26l-22.79-12.4c0.87,0.22,1.81,0.28,2.8,0.14l22.79,12.4
								C639.69,600.54,638.75,600.49,637.88,600.26"/>
						</g>
						
							<use xlink:href="#SVGID_00000021089685610816054860000006707042694741622684_"  style="overflow:visible;fill:none;stroke:#FFFFFF;stroke-miterlimit:10;"/>
					</g>
				</g>
				<g>
					<polygon class="st2" points="632.91,426.51 610.12,414.11 896.53,373.85 919.33,386.25 					"/>
				</g>
				<g>
					<polygon class="st2" points="531.05,971.6 508.26,959.2 509.07,522.96 531.86,535.36 					"/>
				</g>
				<g>
					<polygon class="st2" points="540.13,439.55 517.34,427.15 610.12,414.11 632.91,426.51 					"/>
				</g>
				<g>
					<polygon class="st2" points="531.86,535.36 509.07,522.96 509.23,437.02 532.02,449.42 					"/>
				</g>
				<g class="st0">
					<g>
						<defs>
							<path id="SVGID_00000064333056157012233230000005204581495078468023_" d="M532.02,449.42l-22.79-12.4
								c0.01-4.82,3.64-9.24,8.11-9.87l22.79,12.4C535.66,440.17,532.03,444.59,532.02,449.42z"/>
						</defs>
						<use xlink:href="#SVGID_00000064333056157012233230000005204581495078468023_"  style="overflow:visible;fill:#469E69;"/>
						<clipPath id="SVGID_00000052067001895372543360000009122845234980110521_">
							<use xlink:href="#SVGID_00000064333056157012233230000005204581495078468023_"  style="overflow:visible;"/>
						</clipPath>
						<g style="clip-path:url(#SVGID_00000052067001895372543360000009122845234980110521_);enable-background:new    ;">
							<path class="st2" d="M532.02,449.42l-22.79-12.4c0-1.19,0.22-2.35,0.62-3.44l22.79,12.4
								C532.25,447.06,532.02,448.23,532.02,449.42"/>
							<path class="st2" d="M532.65,445.98l-22.79-12.4c0.17-0.47,0.38-0.92,0.61-1.36l22.79,12.4
								C533.02,445.05,532.82,445.51,532.65,445.98"/>
							<path class="st2" d="M533.26,444.61l-22.79-12.4c0.2-0.37,0.42-0.73,0.66-1.07l22.79,12.4
								C533.68,443.89,533.46,444.24,533.26,444.61"/>
							<path class="st2" d="M533.92,443.55l-22.79-12.4c0.23-0.32,0.47-0.63,0.73-0.92l22.79,12.4
								C534.39,442.92,534.14,443.22,533.92,443.55"/>
							<path class="st2" d="M534.64,442.62l-22.79-12.4c0.26-0.29,0.54-0.57,0.83-0.83l22.79,12.4
								C535.18,442.05,534.9,442.33,534.64,442.62"/>
							<path class="st2" d="M535.47,441.79l-22.79-12.4c0.31-0.28,0.64-0.54,0.98-0.77l22.79,12.4
								C536.11,441.25,535.78,441.51,535.47,441.79"/>
							<path class="st2" d="M536.45,441.02l-22.79-12.4c0.42-0.29,0.86-0.54,1.31-0.76l22.79,12.4
								C537.31,440.47,536.87,440.73,536.45,441.02"/>
							<path class="st2" d="M537.76,440.26l-22.79-12.4c0.75-0.35,1.54-0.6,2.37-0.71l22.79,12.4
								C539.31,439.66,538.51,439.91,537.76,440.26"/>
						</g>
						
							<use xlink:href="#SVGID_00000064333056157012233230000005204581495078468023_"  style="overflow:visible;fill:none;stroke:#FFFFFF;stroke-miterlimit:10;"/>
					</g>
				</g>
				<g>
					<path class="st2" d="M919.33,386.25c4.46-0.63,8.08,2.77,8.07,7.6l-0.14,77.22c-0.01,4.82-3.64,9.23-8.1,9.86l-278.32,39.12
						c-4.47,0.63-8.1,5.04-8.11,9.87l-0.12,62.91c-0.01,4.82,3.6,8.21,8.07,7.59L919,561.29c4.46-0.63,8.08,2.77,8.07,7.6
						l-0.14,77.22c-0.01,4.82-3.64,9.23-8.1,9.86L640.5,695.08c-4.47,0.63-8.1,5.04-8.11,9.87l-0.47,252.48
						c-0.01,4.82-3.64,9.24-8.1,9.87l-84.7,11.9c-4.47,0.63-8.08-2.77-8.07-7.6l0.81-436.25l0.16-85.94
						c0.01-4.82,3.64-9.24,8.11-9.87l92.78-13.04L919.33,386.25z"/>
				</g>
			</g>
		</g>
	</g>
</g>
</svg>
