<svg width="148" height="187" viewBox="0 0 148 187" fill="none" xmlns="http://www.w3.org/2000/svg">
<g filter="url(#filter0_dddd_541_158)">
<path d="M135.97 118.298L126.641 113.786C126.882 113.877 127.12 113.971 127.353 114.073L136.683 118.585C136.449 118.483 136.212 118.385 135.97 118.298Z" fill="#A3A3A3" fill-opacity="0.2"/>
<path d="M136.683 118.582L127.353 114.07C127.521 114.142 127.685 114.219 127.844 114.295L137.174 118.807C137.014 118.731 136.85 118.654 136.683 118.582Z" fill="#9E9E9E" fill-opacity="0.2"/>
<path d="M68.2331 177.641L58.9037 173.128C54.8428 171.163 52.01 167.186 52.0182 161.939L61.3476 166.451C61.3394 171.698 64.1722 175.676 68.2331 177.641Z" fill="#858585" fill-opacity="0.1"/>
<path d="M83.1829 98.7425L73.8536 94.2303L126.641 113.786L135.97 118.298L83.1829 98.7425Z" fill="#A2A2A2" fill-opacity="0.2"/>
<path d="M76.3754 97.9857L67.046 93.4735C68.7367 93.2624 70.456 93.3279 72.1467 93.7173L81.4761 98.2295C79.7854 97.8401 78.0661 97.7746 76.3754 97.9857Z" fill="#A8A8A8" fill-opacity="0.2"/>
<path d="M81.476 98.2294L72.1466 93.7172C72.7197 93.8482 73.2928 94.0192 73.8577 94.2303L83.1871 98.7425C82.6181 98.5314 82.0491 98.3604 81.476 98.2294Z" fill="#A3A3A3" fill-opacity="0.2"/>
<path d="M61.3517 166.451L52.0182 161.939L52.1287 109.626L61.4581 114.135L61.3517 166.451Z" fill="#828282" fill-opacity="0.2"/>
<path d="M76.3753 97.9856C78.6391 97.7018 80.9602 97.9201 83.183 98.7425L135.97 118.298C146.7 122.271 146.671 137.005 135.917 143.664L83.0234 176.422C80.7923 177.801 78.4713 178.598 76.2075 178.881C68.4091 179.857 61.3353 174.737 61.3517 166.451L61.4622 114.139C61.4786 105.849 68.577 98.9572 76.3753 97.9856Z" fill="#DFDFDF" fill-opacity="0.2"/>
<path d="M61.4581 114.135L52.1287 109.623C52.1328 107.643 52.5422 105.744 53.2667 103.986L62.5961 108.498C61.8716 110.26 61.4622 112.159 61.4581 114.135Z" fill="#858585" fill-opacity="0.1"/>
<path d="M62.5961 108.502L53.2667 103.99C53.5819 103.229 53.9504 102.498 54.3761 101.796L63.7055 106.308C63.2838 107.007 62.9113 107.742 62.5961 108.502Z" fill="#8A8A8A" fill-opacity="0.2"/>
<path d="M63.7054 106.304L54.376 101.792C54.7404 101.192 55.1415 100.613 55.5755 100.064L64.9048 104.576C64.4709 105.129 64.0697 105.704 63.7054 106.304Z" fill="#8F8F8F" fill-opacity="0.2"/>
<path d="M64.9049 104.576L55.5755 100.064C55.9931 99.5359 56.4393 99.0301 56.9141 98.5534L66.2435 103.066C65.7686 103.546 65.3224 104.048 64.9049 104.576Z" fill="#949494" fill-opacity="0.2"/>
<path d="M66.2436 103.066L56.9142 98.5533C57.3973 98.0657 57.909 97.6109 58.4412 97.1815L67.7705 101.694C67.2384 102.123 66.7267 102.582 66.2436 103.066Z" fill="#999999" fill-opacity="0.2"/>
<path d="M67.7746 101.694L58.4452 97.1815C59.0306 96.7121 59.6446 96.2827 60.2832 95.8897L69.6126 100.402C68.974 100.795 68.3599 101.224 67.7746 101.694Z" fill="#9E9E9E" fill-opacity="0.2"/>
<path d="M69.6085 100.402L60.2791 95.8897C61.0651 95.4058 61.8879 94.9837 62.7353 94.6307L72.0647 99.1429C71.2173 99.4959 70.3945 99.918 69.6085 100.402Z" fill="#A3A3A3" fill-opacity="0.2"/>
<path d="M72.0647 99.1428L62.7353 94.6306C64.1189 94.0521 65.5681 93.6554 67.0459 93.4698L76.3753 97.982C74.8975 98.1676 73.4483 98.5643 72.0647 99.1428Z" fill="#A8A8A8" fill-opacity="0.2"/>
<path d="M129.355 51.0695L120.026 46.5573C120.32 46.5209 120.603 46.5355 120.865 46.5937L130.194 51.1059C129.932 51.0477 129.65 51.0332 129.355 51.0695Z" fill="#A8A8A8" fill-opacity="0.2"/>
<path d="M130.194 51.1097L120.865 46.5975C121 46.6266 121.127 46.6703 121.246 46.7249L130.575 51.2371C130.456 51.1825 130.329 51.1388 130.194 51.1097Z" fill="#A3A3A3" fill-opacity="0.2"/>
<path d="M130.579 51.2334L121.25 46.7212C121.274 46.7321 121.299 46.743 121.323 46.7539L130.653 51.2661C130.628 51.2552 130.604 51.2443 130.579 51.2334Z" fill="#9E9E9E" fill-opacity="0.2"/>
<path d="M129.453 4.53205L120.124 0.0198382C120.419 -0.0165506 120.701 -0.00199283 120.959 0.0562292L130.288 4.56843C130.03 4.51021 129.748 4.49566 129.453 4.53205Z" fill="#A8A8A8" fill-opacity="0.2"/>
<path d="M130.288 4.57202L120.959 0.0598145C121.094 0.0889255 121.221 0.132594 121.34 0.187177L130.669 4.69938C130.55 4.6448 130.424 4.60113 130.288 4.57202Z" fill="#A3A3A3" fill-opacity="0.2"/>
<path d="M130.673 4.69571L121.344 0.18351C121.368 0.194426 121.393 0.205342 121.417 0.216258L130.747 4.72846C130.722 4.71754 130.698 4.70663 130.673 4.69571Z" fill="#9E9E9E" fill-opacity="0.2"/>
<path d="M14.451 161.975L5.12168 157.463C4.44623 157.135 3.99593 156.466 4.00003 155.64L13.3294 160.152C13.3253 160.978 13.7756 161.651 14.451 161.975Z" fill="#858585" fill-opacity="0.1"/>
<path d="M46.1152 61.4696L36.7858 56.9574L120.026 46.5575L129.355 51.0697L46.1152 61.4696Z" fill="#B4B4B4" fill-opacity="0.2"/>
<path d="M44.8257 61.273L35.4963 56.7608C35.5209 56.7717 35.5455 56.7827 35.57 56.7936L44.8994 61.3058C44.8748 61.2949 44.8503 61.2839 44.8257 61.273Z" fill="#9E9E9E" fill-opacity="0.2"/>
<path d="M44.8995 61.3058L35.5701 56.7936C35.6929 56.8482 35.8198 56.8882 35.9508 56.9173L45.2802 61.4295C45.1492 61.4004 45.0223 61.3604 44.8995 61.3058Z" fill="#A3A3A3" fill-opacity="0.2"/>
<path d="M45.2801 61.4332L35.9507 56.921C36.2086 56.9792 36.4911 56.9938 36.7858 56.9574L46.1152 61.4696C45.8205 61.506 45.5421 61.4914 45.2801 61.4332Z" fill="#A8A8A8" fill-opacity="0.2"/>
<path d="M43.7941 15.2339L34.4648 10.7217L120.124 0.0198097L129.453 4.53202L43.7941 15.2339Z" fill="#B4B4B4" fill-opacity="0.2"/>
<path d="M13.3294 160.156L4 155.644L4.24151 39.6653L13.5709 44.1775L13.3294 160.156Z" fill="#828282" fill-opacity="0.2"/>
<path d="M16.0435 18.7019L6.71411 14.1896L34.4648 10.7218L43.7942 15.234L16.0435 18.7019Z" fill="#B4B4B4" fill-opacity="0.2"/>
<path d="M13.571 44.1776L4.24164 39.6654L4.28669 16.8133L13.6201 21.3255L13.571 44.1776Z" fill="#828282" fill-opacity="0.2"/>
<path d="M13.62 21.3254L4.29059 16.8132C4.29059 16.4966 4.3561 16.1873 4.4789 15.8998L13.8083 20.412C13.6855 20.6995 13.62 21.0088 13.62 21.3254Z" fill="#858585" fill-opacity="0.1"/>
<path d="M13.8042 20.412L4.47485 15.8998C4.52807 15.7761 4.58948 15.6524 4.65907 15.5359L13.9884 20.0481C13.9188 20.1646 13.8575 20.2883 13.8042 20.412Z" fill="#8A8A8A" fill-opacity="0.2"/>
<path d="M13.9885 20.0483L4.65912 15.5361C4.72052 15.4378 4.78601 15.3432 4.8556 15.2523L14.185 19.7645C14.1154 19.8554 14.0499 19.95 13.9885 20.0483Z" fill="#8F8F8F" fill-opacity="0.2"/>
<path d="M14.1849 19.7643L4.85553 15.2521C4.92512 15.1648 4.99473 15.0847 5.0725 15.0047L14.4019 19.5169C14.3282 19.5969 14.2545 19.6806 14.1849 19.7643Z" fill="#949494" fill-opacity="0.2"/>
<path d="M14.4019 19.5205L5.07257 15.0083C5.15035 14.9283 5.23221 14.8555 5.31818 14.7864L14.6476 19.2986C14.5657 19.3677 14.4797 19.4405 14.4019 19.5205Z" fill="#999999" fill-opacity="0.2"/>
<path d="M14.6516 19.2986L5.32227 14.7864C5.41642 14.7136 5.51468 14.6445 5.61292 14.579L14.9423 19.0912C14.8399 19.153 14.7458 19.2222 14.6516 19.2986Z" fill="#9E9E9E" fill-opacity="0.2"/>
<path d="M14.9423 19.0911L5.61298 14.5789C5.73988 14.5025 5.87086 14.4334 6.00595 14.3788L15.3353 18.891C15.2002 18.9456 15.0692 19.0147 14.9423 19.0911Z" fill="#A3A3A3" fill-opacity="0.2"/>
<path d="M15.3353 18.891L6.00592 14.3788C6.23107 14.2842 6.46852 14.2223 6.71413 14.1895L16.0435 18.7018C15.7979 18.7309 15.5605 18.7964 15.3353 18.891Z" fill="#A8A8A8" fill-opacity="0.2"/>
<path d="M129.453 4.53206C130.792 4.36467 131.873 5.27075 131.869 6.55163L131.828 27.0785C131.824 28.363 130.739 29.5348 129.404 29.7022L46.1644 40.1021C44.8299 40.2695 43.745 41.4412 43.7409 42.7221L43.7041 59.4463C43.7 60.7272 44.7807 61.6333 46.1153 61.4659L129.355 51.066C130.694 50.8986 131.774 51.801 131.77 53.0819L131.729 73.6125C131.725 74.8933 130.64 76.0651 129.306 76.2324L46.0662 86.6324C44.7316 86.7997 43.6468 87.9715 43.6427 89.256L43.5035 156.379C43.4994 157.66 42.4146 158.835 41.0801 159.002L15.7488 162.168C14.4101 162.336 13.3294 161.429 13.3335 160.149L13.575 44.1703L13.6242 21.3182C13.6283 20.0373 14.7131 18.8619 16.0476 18.6946L43.7983 15.2267L129.453 4.53206Z" fill="#DFDFDF" fill-opacity="0.2"/>
</g>
<defs>
<filter id="filter0_dddd_541_158" x="0" y="0" width="148" height="187" filterUnits="userSpaceOnUse" color-interpolation-filters="sRGB">
<feFlood flood-opacity="0" result="BackgroundImageFix"/>
<feColorMatrix in="SourceAlpha" type="matrix" values="0 0 0 0 0 0 0 0 0 0 0 0 0 0 0 0 0 0 127 0" result="hardAlpha"/>
<feOffset dy="4"/>
<feGaussianBlur stdDeviation="2"/>
<feComposite in2="hardAlpha" operator="out"/>
<feColorMatrix type="matrix" values="0 0 0 0 0 0 0 0 0 0 0 0 0 0 0 0 0 0 0.25 0"/>
<feBlend mode="normal" in2="BackgroundImageFix" result="effect1_dropShadow_541_158"/>
<feColorMatrix in="SourceAlpha" type="matrix" values="0 0 0 0 0 0 0 0 0 0 0 0 0 0 0 0 0 0 127 0" result="hardAlpha"/>
<feOffset dy="4"/>
<feGaussianBlur stdDeviation="2"/>
<feComposite in2="hardAlpha" operator="out"/>
<feColorMatrix type="matrix" values="0 0 0 0 0 0 0 0 0 0 0 0 0 0 0 0 0 0 0.25 0"/>
<feBlend mode="normal" in2="effect1_dropShadow_541_158" result="effect2_dropShadow_541_158"/>
<feColorMatrix in="SourceAlpha" type="matrix" values="0 0 0 0 0 0 0 0 0 0 0 0 0 0 0 0 0 0 127 0" result="hardAlpha"/>
<feOffset dy="4"/>
<feGaussianBlur stdDeviation="2"/>
<feComposite in2="hardAlpha" operator="out"/>
<feColorMatrix type="matrix" values="0 0 0 0 0 0 0 0 0 0 0 0 0 0 0 0 0 0 0.25 0"/>
<feBlend mode="normal" in2="effect2_dropShadow_541_158" result="effect3_dropShadow_541_158"/>
<feColorMatrix in="SourceAlpha" type="matrix" values="0 0 0 0 0 0 0 0 0 0 0 0 0 0 0 0 0 0 127 0" result="hardAlpha"/>
<feOffset dy="4"/>
<feGaussianBlur stdDeviation="2"/>
<feComposite in2="hardAlpha" operator="out"/>
<feColorMatrix type="matrix" values="0 0 0 0 0 0 0 0 0 0 0 0 0 0 0 0 0 0 0.25 0"/>
<feBlend mode="normal" in2="effect3_dropShadow_541_158" result="effect4_dropShadow_541_158"/>
<feBlend mode="normal" in="SourceGraphic" in2="effect4_dropShadow_541_158" result="shape"/>
</filter>
</defs>
</svg>
